{"title":"Puss in Boots 2011 720P BRRIP XViD AC3 - HOPE","uid":7023549,"size":2105084417,"categoryP":"video","categoryS":"hd___movies","magnet":"?xt=urn:btih:6824c3d426af63f75824eeead90585462e5a9e96&amp;dn=Puss+in+Boots+2011+720P+BRRIP+XViD+AC3+-+HOPE&amp;tr=udp%3A%2F%2Ftracker.openbittorrent.com%3A80&amp;tr=udp%3A%2F%2Fopen.demonii.com%3A1337&amp;tr=udp%3A%2F%2Ftracker.coppersurfer.tk%3A6969&amp;tr=udp%3A%2F%2Fexodus.desync.com%3A6969","seeders":5,"leechers":1,"uploader":"MrTPB","files":-1,"time":1328929857,"description":"                  Puss in Boots 2011 720P BRRIP XViD AC3 - HOPE\n\nCover\n &lt;a href=&quot;\nhttp://images.net63.net/short_url/?LXESI&quot; rel=&quot;nofollow&quot; target=&quot;_NEW&quot;&gt;\nhttp://images.net63.net/short_url/?LXESI&lt;/a&gt;\n\nScreene:\n &lt;a href=&quot;\nhttp://images.net63.net/short_url/?OMZLA&quot; rel=&quot;nofollow&quot; target=&quot;_NEW&quot;&gt;\nhttp://images.net63.net/short_url/?OMZLA&lt;/a&gt; &lt;a href=&quot;\nhttp://images.net63.net/short_url/?ESCJX&quot; rel=&quot;nofollow&quot; target=&quot;_NEW&quot;&gt;\nhttp://images.net63.net/short_url/?ESCJX&lt;/a&gt; &lt;a href=&quot;\nhttp://images.net63.net/short_url/?MCXSH&quot; rel=&quot;nofollow&quot; target=&quot;_NEW&quot;&gt;\nhttp://images.net63.net/short_url/?MCXSH&lt;/a&gt; &lt;a href=&quot;\nhttp://images.net63.net/short_url/?ZWBMY&quot; rel=&quot;nofollow&quot; target=&quot;_NEW&quot;&gt;\nhttp://images.net63.net/short_url/?ZWBMY&lt;/a&gt; &lt;a href=&quot;\nhttp://images.net63.net/short_url/?YXIBQ&quot; rel=&quot;nofollow&quot; target=&quot;_NEW&quot;&gt;\nhttp://images.net63.net/short_url/?YXIBQ&lt;/a&gt; &lt;a href=&quot;\nhttp://images.net63.net/short_url/?NALFH&quot; rel=&quot;nofollow&quot; target=&quot;_NEW&quot;&gt;\nhttp://images.net63.net/short_url/?NALFH&lt;/a&gt; &lt;a href=&quot;\nhttp://images.net63.net/short_url/?KJGGQ&quot; rel=&quot;nofollow&quot; target=&quot;_NEW&quot;&gt;\nhttp://images.net63.net/short_url/?KJGGQ&lt;/a&gt; &lt;a href=&quot;\nhttp://images.net63.net/short_url/?YADLA&quot; rel=&quot;nofollow&quot; target=&quot;_NEW&quot;&gt;\nhttp://images.net63.net/short_url/?YADLA&lt;/a&gt;\n\nPlot: \nA story about the events leading up to the sword fighting cat's meeting with Shrek and his friends. \n\nIMDB: \nwww.imdb.com/title/tt0448694/\n\nInformation:\nFormat                           : AVI\nFormat/Info                      : Audio Video Interleave\nFile size                        : 1.94 GiB\nDuration                         : 1h 30mn\nOverall bit rate                 : 3 079 Kbps\n\nVideo\nID                               : 0\nFormat                           : MPEG-4 Visual\nFormat profile                   : Advanced Simple@L5\nFormat settings, BVOP            : 2\nFormat settings, QPel            : No\nFormat settings, GMC             : No warppoints\nFormat settings, Matrix          : Default (H.263)\nMuxing mode                      : Packed bitstream\nCodec ID                         : XVID\nCodec ID/Hint                    : XviD\nDuration                         : 1h 30mn\nBit rate                         : 2 623 Kbps\nWidth                            : 1 280 pixels\nHeight                           : 544 pixels\nDisplay aspect ratio             : 2.35:1\nFrame rate                       : 23.976 fps\nColor space                      : YUV\nChroma subsampling               : 4:2:0\nBit depth                        : 8 bits\nScan type                        : Progressive\nCompression mode                 : Lossy\nBits/(Pixel*Frame)               : 0.157\nStream size                      : 1.65 GiB (85%)\nWriting library                  : XviD 64\n\nAudio\nID                               : 1\nFormat                           : AC-3\nFormat/Info                      : Audio Coding 3\nMode extension                   : CM (complete main)\nCodec ID                         : 2000\nDuration                         : 1h 30mn\nBit rate mode                    : Constant\nBit rate                         : 448 Kbps\nChannel(s)                       : 6 channels\nChannel positions                : Front: L C R, Side: L R, LFE\nSampling rate                    : 48.0 KHz\nBit depth                        : 16 bits\nCompression mode                 : Lossy\nStream size                      : 289 MiB (15%)\nAlignment                        : Aligned on interleaves\nInterleave, duration             : 64 ms (1.53 video frames)\nInterleave, preload duration     : 192 ms\n\n\nNotes: \nJust another release of many lol \n\nSource &gt; 720p.BluRay.x264.DTS-HDC... Thanks \n\nEnjoy!\n\nRespects to 26K, DTRG, JCRG, GooN, ViSiON, SANTi, INSPiRAL, REFiLL, SiC... \nAnd many others in the P2P and Scene world\n","torrent":{"xt":"urn:btih:6824c3d426af63f75824eeead90585462e5a9e96","amp;dn":"Puss+in+Boots+2011+720P+BRRIP+XViD+AC3+-+HOPE","amp;tr":["udp%3A%2F%2Ftracker.openbittorrent.com%3A80","udp%3A%2F%2Fopen.demonii.com%3A1337","udp%3A%2F%2Ftracker.coppersurfer.tk%3A6969","udp%3A%2F%2Fexodus.desync.com%3A6969"],"infoHash":"6824c3d426af63f75824eeead90585462e5a9e96","infoHashBuffer":{"type":"Buffer","data":[104,36,195,212,38,175,99,247,88,36,238,234,217,5,133,70,46,90,158,150]},"announce":[],"urlList":[]}}